<svg width="78" height="67" viewBox="0 0 78 67" fill="none" xmlns="http://www.w3.org/2000/svg">
<g clip-path="url(#clip0_109_7)">
<path d="M12.9051 54.4461V11.0628H29.0094C32.4204 11.0192 35.7717 11.9607 38.6611 13.7743C46.7946 19.1972 46.7946 29.6363 46.7946 30.4497L56.121 18.9531C54.3754 14.0538 51.3521 9.7101 47.3639 6.37201C44.7915 4.2276 41.8648 2.54844 38.7153 1.41005C37.6721 1.02751 36.603 0.719442 35.5162 0.488154C33.7361 0.101892 31.9136 -0.0530365 30.0939 0.027207H0V64.614H35.245C32.8592 61.2247 30.4463 57.8354 28.0876 54.4461H12.9051Z" fill="#290B36"/>
<path d="M45.2221 44.0611L24.78 18.8988L21.0115 19.1157V34.083L45.2221 63.9089L65.9896 38.9636V67H78V5.88385L45.2221 44.0611Z" fill="#6BA4D9"/>
</g>
<defs>
<clipPath id="clip0_109_7">
<rect width="78" height="67" fill="white"/>
</clipPath>
</defs>
</svg>
