<svg width="361" height="100" viewBox="0 0 361 100" fill="none" xmlns="http://www.w3.org/2000/svg">
<g clip-path="url(#clip0_109_11)">
<path d="M30.9469 2.94395C27.1168 1.26388 22.9642 0.453196 18.7858 0.569786H-0.141968V57.5498H18.7858C23.0405 57.6733 27.2664 56.8122 31.1362 55.0332C34.3329 53.4789 36.9761 50.9758 38.7073 47.8632C40.3924 44.5939 41.2381 40.9545 41.1679 37.2744V21.0351C41.291 17.1812 40.3929 13.3634 38.5653 9.97149C36.816 6.89094 34.1529 4.43442 30.9469 2.94395ZM30.0951 37.5119C30.1843 38.8551 29.9712 40.2013 29.4715 41.4506C28.9718 42.7 28.1985 43.8206 27.2087 44.7293C24.8891 46.5691 21.9731 47.4824 19.0224 47.2934H10.6942V10.9212H19.0224C21.9731 10.7322 24.8891 11.6455 27.2087 13.4853C28.1904 14.4003 28.9583 15.5219 29.4573 16.7697C29.9563 18.0175 30.1742 19.3605 30.0951 20.7027V37.5119Z" fill="#290B36"/>
<path d="M62.1304 0.569794H51.0104V57.6448H62.1304V0.569794Z" fill="#290B36"/>
<path d="M94.5916 36.0874H103.204V37.2745C103.259 39.149 102.853 41.0084 102.021 42.6876C101.278 44.1433 100.127 45.3485 98.7083 46.1539C97.1478 46.9729 95.4058 47.3814 93.6452 47.3409C91.8506 47.3715 90.0721 46.9983 88.44 46.2488C87.0339 45.5455 85.8533 44.4595 85.033 43.1149C84.1794 41.6826 83.7524 40.0348 83.8027 38.3666V21.32C83.7569 19.4616 84.1629 17.62 84.9857 15.9544C85.7564 14.4788 86.9193 13.2462 88.3454 12.3932C89.8308 11.5466 91.511 11.1047 93.2193 11.1111C94.4991 11.1082 95.7678 11.3499 96.9575 11.8234C98.1361 12.2698 99.2139 12.9478 100.128 13.8177C101.017 14.6901 101.683 15.7653 102.068 16.9516H113.661C113.049 13.7223 111.723 10.6718 109.781 8.02469C107.927 5.50021 105.492 3.46371 102.683 2.08927C99.735 0.659022 96.4934 -0.0565998 93.2193 7.98516e-06C89.4269 -0.0938838 85.6756 0.806259 82.3358 2.61159C79.2378 4.3564 76.7074 6.96144 75.0486 10.114C73.2949 13.5829 72.4174 17.431 72.4934 21.32V38.1292C72.4022 41.8287 73.3009 45.4852 75.0959 48.718C76.8267 51.7282 79.3911 54.1695 82.4778 55.7455C85.8774 57.4713 89.6466 58.3354 93.4559 58.2621C97.2368 58.3354 100.971 57.4189 104.292 55.603C107.411 53.8851 109.948 51.273 111.579 48.1007C113.333 44.6317 114.21 40.7836 114.134 36.8946V25.736H94.5916V36.0874Z" fill="#290B36"/>
<path d="M135.239 0.569794H124.119V57.6448H135.239V0.569794Z" fill="#290B36"/>
<path d="M171.959 39.0788L161.123 0.569794H146.974V57.6923H156.722V17.9012L167.227 51.3295H176.691L187.148 17.1415V57.6923H196.896V0.569794H182.795L171.959 39.0788Z" fill="#290B36"/>
<path d="M224.909 0.569794L203.142 57.5498H214.688L217.906 48.433H238.727L241.944 57.5498H253.49L231.723 0.569794H224.909ZM221.502 38.1291L228.316 18.661L235.178 38.1291H221.502Z" fill="#290B36"/>
<path d="M251.172 10.9687H266.645V57.6923H277.387V10.9687H292.86V0.569794H251.172V10.9687Z" fill="#290B36"/>
<path d="M309.469 0.569794H298.349V57.6448H309.469V0.569794Z" fill="#290B36"/>
<path d="M347.987 43.3998C347.203 44.665 346.112 45.7104 344.817 46.4388C343.513 47.156 342.044 47.5163 340.558 47.4834C338.774 47.5492 337.006 47.1222 335.447 46.2488C334.032 45.4269 332.907 44.1819 332.23 42.6876C331.436 40.896 331.048 38.9498 331.094 36.9896V21.3201C331.044 19.3441 331.432 17.3817 332.23 15.5746C332.917 14.0745 334.038 12.817 335.447 11.9658C337.015 11.1143 338.776 10.6887 340.558 10.7313C342.026 10.7274 343.472 11.0861 344.769 11.7759C346.037 12.5453 347.107 13.6024 347.892 14.8623C348.837 16.3108 349.51 17.9198 349.88 19.6106H360.953C360.381 15.8398 359.096 12.2134 357.167 8.92689C355.44 6.12025 353.03 3.80011 350.164 2.18426C347.246 0.649176 343.994 -0.13404 340.7 -0.0949449C336.862 -0.210499 333.055 0.638259 329.627 2.37419C326.586 4.02969 324.125 6.58217 322.577 9.68662C320.876 13.2879 320.05 17.2418 320.163 21.2251V36.8946C320.053 40.8623 320.88 44.7998 322.577 48.3856C324.115 51.4852 326.58 54.0251 329.627 55.6506C333.051 57.4029 336.858 58.268 340.7 58.1672C344 58.2079 347.256 57.4074 350.164 55.8405C353.016 54.2232 355.41 51.9025 357.12 49.0978C359.078 45.838 360.38 42.2244 360.953 38.4616H349.88C349.546 40.2074 348.905 41.8797 347.987 43.3998Z" fill="#290B36"/>
<path d="M23.0446 77.0181L12.3977 86.9421L1.56157 77.113C1.40949 77.0047 1.22759 76.9465 1.04106 76.9465C0.85454 76.9465 0.672631 77.0047 0.520547 77.113C0.347613 77.1992 0.205066 77.3363 0.112027 77.5061C0.0189877 77.6758 -0.020096 77.87 2.9848e-05 78.0627V99.0029C2.9848e-05 99.3353 3.05371e-05 99.4777 0.425906 99.4777H4.63734C4.96858 99.4777 5.11053 99.4777 5.11053 99.0029V87.227L11.6406 92.925C11.8638 93.1235 12.1473 93.2406 12.445 93.2574C12.6062 93.2613 12.7662 93.2293 12.9135 93.1636C13.0608 93.0979 13.1917 93.0002 13.2968 92.8775L19.4483 87.322V99.0029C19.4407 99.0671 19.4477 99.1322 19.4688 99.1932C19.4899 99.2543 19.5245 99.3098 19.5701 99.3555C19.6156 99.4013 19.6709 99.436 19.7318 99.4572C19.7927 99.4783 19.8575 99.4853 19.9215 99.4777H24.1803C24.4642 99.4777 24.6061 99.4777 24.6061 99.0029V77.6353C24.6156 77.4385 24.5668 77.2431 24.4657 77.0741C24.3646 76.9051 24.2159 76.7699 24.0383 76.6857C23.8604 76.6129 23.6624 76.6064 23.4802 76.6673C23.2979 76.7283 23.1434 76.8527 23.0446 77.0181Z" fill="#6BA4D9"/>
<path d="M58.4395 76.5432C58.1886 76.5336 57.9408 76.6012 57.7293 76.737C57.5179 76.8728 57.3529 77.0703 57.2565 77.3029L47.2721 99.0028C47.2721 99.0028 47.2721 99.0028 47.2721 99.3827C47.3296 99.4161 47.3949 99.4336 47.4614 99.4336C47.5278 99.4336 47.5931 99.4161 47.6506 99.3827H52.3826C52.5254 99.4005 52.6699 99.3674 52.7909 99.2894C52.912 99.2113 53.0019 99.0931 53.0451 98.9553L54.512 95.5365H62.7456L64.2124 98.9553C64.2685 99.0842 64.3613 99.1936 64.4792 99.2697C64.5971 99.3457 64.7348 99.3851 64.8749 99.3827H69.6069C69.6585 99.4079 69.7151 99.421 69.7725 99.421C69.8299 99.421 69.8865 99.4079 69.9381 99.3827C69.9713 99.325 69.9888 99.2595 69.9888 99.1928C69.9888 99.1261 69.9713 99.0606 69.9381 99.0028L59.6698 77.1605C59.5602 76.9367 59.3806 76.7552 59.1584 76.6437C58.9361 76.5322 58.6836 76.4969 58.4395 76.5432ZM56.2155 91.453L58.4868 86.1348L60.7581 91.453H56.2155Z" fill="#6BA4D9"/>
<path d="M110.302 89.7436C111.209 88.0611 111.607 86.1496 111.447 84.2434C111.287 82.3372 110.577 80.5193 109.403 79.0124C108.663 78.284 107.78 77.718 106.811 77.3501C105.841 76.9823 104.806 76.8207 103.772 76.8756H93.2193C93.1554 76.8679 93.0905 76.875 93.0296 76.8962C92.9687 76.9173 92.9135 76.9521 92.8679 76.9978C92.8223 77.0435 92.7877 77.099 92.7666 77.1601C92.7455 77.2212 92.7385 77.2862 92.7461 77.3504V99.0029C92.7461 99.3352 92.7461 99.4777 93.2193 99.4777H97.62C97.7246 99.4548 97.8168 99.3932 97.8781 99.3052C97.9395 99.2173 97.9656 99.1093 97.9513 99.0029V92.9725H101.5L105.759 99.3352C105.827 99.4361 105.919 99.519 106.026 99.5769C106.133 99.6348 106.253 99.6659 106.374 99.6676H111.106C111.149 99.6926 111.198 99.7058 111.248 99.7058C111.298 99.7058 111.347 99.6926 111.39 99.6676C111.412 99.615 111.424 99.5585 111.424 99.5014C111.424 99.4444 111.412 99.3878 111.39 99.3352L106.658 92.5926C108.18 92.1241 109.477 91.11 110.302 89.7436ZM105.57 86.9421C105.262 87.3131 104.868 87.6025 104.422 87.7846C103.977 87.9668 103.493 88.0362 103.014 87.9867H97.9513V81.7664H103.298C103.72 81.7103 104.148 81.7532 104.55 81.8916C104.952 82.03 105.316 82.2602 105.615 82.564C105.913 82.8679 106.137 83.237 106.269 83.6424C106.4 84.0479 106.436 84.4785 106.374 84.9003C106.391 85.6445 106.139 86.3696 105.664 86.9421H105.57Z" fill="#6BA4D9"/>
<path d="M147.069 76.8756C146.959 76.8748 146.852 76.9057 146.76 76.9647C146.667 77.0237 146.594 77.1082 146.548 77.208L139.734 87.5594V77.3505C139.734 77.2245 139.685 77.1037 139.596 77.0147C139.507 76.9256 139.387 76.8756 139.261 76.8756H134.86C134.796 76.868 134.732 76.875 134.671 76.8962C134.61 76.9173 134.555 76.9521 134.509 76.9978C134.463 77.0435 134.429 77.099 134.408 77.1601C134.387 77.2212 134.38 77.2863 134.387 77.3505V99.0029C134.38 99.0671 134.387 99.1322 134.408 99.1933C134.429 99.2543 134.463 99.3098 134.509 99.3556C134.555 99.4013 134.61 99.436 134.671 99.4572C134.732 99.4783 134.796 99.4853 134.86 99.4777H137.226C137.393 99.4884 137.56 99.4545 137.71 99.3794C137.859 99.3043 137.987 99.1908 138.078 99.0504L142.195 92.8775L146.548 99.1928C146.604 99.2917 146.688 99.3716 146.789 99.4223C146.89 99.4731 147.004 99.4924 147.116 99.4777H152.179C152.22 99.5085 152.27 99.5252 152.321 99.5252C152.373 99.5252 152.422 99.5085 152.463 99.4777C152.463 99.4777 152.463 99.4777 152.463 99.1453L145.271 88.2716L152.511 77.4454C152.558 77.3233 152.558 77.1877 152.511 77.0655C152.466 77.0444 152.418 77.0335 152.369 77.0335C152.32 77.0335 152.271 77.0444 152.227 77.0655L147.069 76.8756Z" fill="#6BA4D9"/>
<path d="M180.713 94.6344V90.1709H190.461C190.792 90.1709 190.934 90.171 190.934 89.7436V86.3248C190.934 85.9924 190.934 85.85 190.461 85.85H180.713V81.9088H192.117C192.224 81.945 192.341 81.945 192.448 81.9088C192.47 81.8562 192.482 81.7997 192.482 81.7426C192.482 81.6855 192.47 81.6291 192.448 81.5765V77.4929C192.47 77.4403 192.482 77.3838 192.482 77.3267C192.482 77.2696 192.47 77.2131 192.448 77.1605C192.341 77.1243 192.224 77.1243 192.117 77.1605H175.839C175.747 77.1279 175.647 77.1279 175.555 77.1605C175.53 77.2123 175.517 77.2691 175.517 77.3267C175.517 77.3843 175.53 77.4411 175.555 77.4929V99.0029C175.53 99.0546 175.517 99.1115 175.517 99.1691C175.517 99.2266 175.53 99.2835 175.555 99.3352C175.647 99.3678 175.747 99.3678 175.839 99.3352H192.212C192.495 99.3352 192.637 99.3352 192.637 98.8604V94.7768C192.637 94.4445 192.637 94.302 192.212 94.302L180.713 94.6344Z" fill="#6BA4D9"/>
<path d="M215.587 76.8756C215.303 76.8756 215.161 76.8756 215.161 77.3505V81.434C215.161 81.7664 215.162 81.9089 215.587 81.9089H221.786V99.0029C221.786 99.3353 221.786 99.4777 222.259 99.4777H226.66C226.724 99.4853 226.789 99.4783 226.85 99.4572C226.911 99.436 226.966 99.4013 227.012 99.3556C227.057 99.3098 227.092 99.2543 227.113 99.1933C227.134 99.1322 227.141 99.0671 227.133 99.0029V81.9089H233.285C233.616 81.9089 233.758 81.9089 233.758 81.434V77.3505C233.766 77.2863 233.759 77.2212 233.738 77.1601C233.716 77.099 233.682 77.0435 233.636 76.9978C233.591 76.9521 233.535 76.9173 233.475 76.8962C233.414 76.875 233.349 76.868 233.285 76.8756H215.587Z" fill="#6BA4D9"/>
<path d="M261.913 94.6344V90.1709H271.661C271.945 90.1709 272.134 90.171 272.134 89.7436V86.3248C272.142 86.2606 272.135 86.1955 272.114 86.1344C272.092 86.0733 272.058 86.0178 272.012 85.9721C271.967 85.9264 271.911 85.8917 271.851 85.8705C271.79 85.8493 271.725 85.8423 271.661 85.85H261.913V81.9088H273.27C273.395 81.9088 273.516 81.8588 273.604 81.7698C273.693 81.6807 273.743 81.56 273.743 81.434V77.3504C273.743 77.2245 273.693 77.1037 273.604 77.0147C273.516 76.9256 273.395 76.8756 273.27 76.8756H257.039C256.914 76.8756 256.793 76.9256 256.705 77.0147C256.616 77.1037 256.566 77.2245 256.566 77.3504V99.0029C256.566 99.1288 256.616 99.2496 256.705 99.3386C256.793 99.4277 256.914 99.4777 257.039 99.4777H273.364C273.648 99.4777 273.79 99.4777 273.79 99.0029V94.9193C273.79 94.5869 273.79 94.4445 273.364 94.4445L261.913 94.6344Z" fill="#6BA4D9"/>
<path d="M314.627 89.7436C315.459 88.3043 315.869 86.6583 315.81 84.9953C315.872 83.8985 315.716 82.8003 315.351 81.7648C314.985 80.7294 314.417 79.7775 313.681 78.9649C312.941 78.2365 312.058 77.6705 311.089 77.3026C310.12 76.9348 309.084 76.7732 308.05 76.8281H297.261C297.197 76.8205 297.132 76.8275 297.071 76.8487C297.01 76.8698 296.955 76.9046 296.909 76.9503C296.864 76.996 296.829 77.0515 296.808 77.1126C296.787 77.1737 296.78 77.2388 296.788 77.303V99.0029C296.78 99.0671 296.787 99.1321 296.808 99.1932C296.829 99.2543 296.864 99.3098 296.909 99.3555C296.955 99.4012 297.01 99.436 297.071 99.4571C297.132 99.4783 297.197 99.4853 297.261 99.4777H301.661C301.993 99.4777 302.135 99.4777 302.135 99.0029V92.9725H305.731L309.99 99.3352C310.051 99.4427 310.141 99.5307 310.25 99.5894C310.359 99.6481 310.482 99.6752 310.605 99.6676H315.337C315.378 99.6984 315.428 99.7151 315.479 99.7151C315.53 99.7151 315.58 99.6984 315.621 99.6676V99.0029L310.889 92.2602C312.388 91.8812 313.709 90.9917 314.627 89.7436ZM309.895 86.9421C309.58 87.3038 309.184 87.5867 308.741 87.768C308.297 87.9494 307.817 88.0243 307.34 87.9867H302.135V81.7664H307.482C307.907 81.7021 308.341 81.7388 308.749 81.8736C309.157 82.0083 309.528 82.2374 309.832 82.5422C310.135 82.8471 310.364 83.2193 310.498 83.6289C310.632 84.0385 310.669 84.4739 310.605 84.9003C310.625 85.6298 310.41 86.3462 309.99 86.9421H309.895Z" fill="#6BA4D9"/>
<path d="M354.517 89.1263C352.864 87.5811 350.844 86.486 348.65 85.9449L347.277 85.5176C346.802 85.4169 346.341 85.2574 345.905 85.0427C345.479 84.9218 345.103 84.6679 344.831 84.3179C344.558 83.9678 344.404 83.5398 344.391 83.0959C344.377 82.7694 344.472 82.4475 344.66 82.181C344.849 81.9145 345.12 81.7185 345.432 81.6239C346.156 81.3975 346.932 81.3975 347.656 81.6239C349.181 81.8512 350.592 82.5675 351.678 83.6657C351.818 83.7019 351.964 83.7019 352.104 83.6657C352.24 83.7211 352.393 83.7211 352.53 83.6657L355.274 81.5765C355.335 81.523 355.383 81.4572 355.416 81.3835C355.449 81.3099 355.467 81.2299 355.467 81.1491C355.467 81.0682 355.449 80.9883 355.416 80.9147C355.383 80.841 355.335 80.7752 355.274 80.7217C354.466 79.7822 353.526 78.9664 352.482 78.3001C350.773 77.2548 348.806 76.7119 346.804 76.7331C344.73 76.6469 342.685 77.2475 340.984 78.4425C340.212 79.0019 339.58 79.7334 339.138 80.5793C338.703 81.4146 338.476 82.3432 338.476 83.2859C338.441 84.092 338.565 84.8971 338.841 85.6549C339.117 86.4127 339.54 87.1084 340.085 87.7018C341.67 89.153 343.563 90.2244 345.621 90.8357L347.088 91.3105C348.016 91.6187 348.917 91.9998 349.785 92.4501C349.967 92.5664 350.115 92.7284 350.215 92.92C350.314 93.1117 350.362 93.3263 350.353 93.5422C350.36 93.8548 350.267 94.1614 350.088 94.4175C349.91 94.6736 349.654 94.866 349.359 94.9668C348.754 95.1901 348.11 95.2871 347.467 95.2517C345.997 95.2207 344.555 94.8468 343.255 94.1596C342.409 93.75 341.614 93.2398 340.889 92.6401C340.822 92.61 340.75 92.5944 340.676 92.5944C340.603 92.5944 340.53 92.61 340.463 92.6401C340.396 92.61 340.324 92.5944 340.25 92.5944C340.177 92.5944 340.104 92.61 340.037 92.6401L337.813 95.3466C337.755 95.3909 337.707 95.4482 337.674 95.5142C337.641 95.5801 337.624 95.6528 337.624 95.7265C337.624 95.8002 337.641 95.8729 337.674 95.9388C337.707 96.0048 337.755 96.0621 337.813 96.1064C338.742 97.057 339.811 97.8578 340.984 98.4805C342.86 99.5441 344.98 100.1 347.135 100.095C349.369 100.211 351.584 99.6304 353.476 98.433C354.261 97.9234 354.901 97.2178 355.332 96.3854C355.764 95.5529 355.972 94.6223 355.937 93.6847C356.076 92.0373 355.567 90.4007 354.517 89.1263Z" fill="#6BA4D9"/>
</g>
<defs>
<clipPath id="clip0_109_11">
<rect width="361" height="100" fill="white"/>
</clipPath>
</defs>
</svg>
