<svg width="564" height="176" viewBox="0 0 564 176" fill="none" xmlns="http://www.w3.org/2000/svg">
<g clip-path="url(#clip0_109_33)">
<path d="M112.963 70.6851C114.591 55.7632 112.451 40.672 106.739 26.787C103.5 19.5647 98.8112 13.0824 92.9625 7.74078C87.8488 2.72394 80.9482 -0.060421 73.7782 1.64706e-05C68.4246 -0.0488052 63.1864 1.5517 58.7776 4.58332C54.2212 7.536 50.4975 11.6033 47.9609 16.3982C40.9752 19.6184 34.6977 24.1878 29.4909 29.8426C24.0135 35.5251 19.2503 41.8526 15.3067 48.6852C11.5884 55.4093 8.51351 62.4683 6.12265 69.7685C4.5807 74.416 3.28633 79.1418 2.24497 83.9259C1.17532 89.0312 0.459306 94.204 0.102023 99.4074C-0.215854 104.643 -0.0107403 109.897 0.714304 115.093C1.40322 120.076 2.95713 124.901 5.3063 129.352C7.62688 133.809 10.8601 137.731 14.7964 140.861C26.3275 149.722 42.2464 150.333 62.3492 142.898C77.6723 137.188 90.5679 126.402 98.8811 112.343C106.686 99.7053 111.502 85.4586 112.963 70.6851ZM65.5126 131.796C61.941 133.426 58.3694 134.954 54.6958 136.278C50.8619 137.653 46.9418 138.776 42.9607 139.639C38.9144 140.567 34.7609 140.943 30.6133 140.759C26.8109 140.601 23.0871 139.629 19.6946 137.907C13.0617 134.546 9.49012 126.093 8.46967 112.75C7.91341 100.437 9.71434 88.1307 13.776 76.4908C17.9729 62.8722 24.9185 50.2551 34.1849 39.4166C37.3066 36.0951 40.7219 33.0612 44.3894 30.3518C44.4171 30.6478 44.5036 30.9354 44.6437 31.1977C44.7839 31.46 44.9749 31.6917 45.2057 31.8796C46.6343 33.2037 47.3486 33.5092 47.3486 32.4907C47.4709 30.7726 47.7441 29.0685 48.165 27.3981C55.9543 22.8308 64.6046 19.9181 73.5741 18.8426C74.9006 18.8426 75.1047 17.7222 74.1863 16.2963C73.7088 15.4587 73.0638 14.7282 72.2914 14.15C71.519 13.5717 70.6357 13.1582 69.6964 12.9352C64.51 12.5287 59.2925 13.046 54.2877 14.463C57.9456 9.60831 63.0563 6.0412 68.88 4.27778C72.2905 3.20368 75.9239 3.04289 79.4162 3.81153C82.9085 4.58018 86.1371 6.25128 88.7787 8.65741C94.7547 13.7939 99.2908 20.3922 101.942 27.8055C106.156 40.3174 107.481 53.6178 105.82 66.7129C104.322 79.9193 100.119 92.6773 93.4727 104.194C87.0621 115.93 77.3398 125.527 65.5126 131.796Z" fill="#6BA4D9"/>
<path d="M217.355 107.556C217.355 107.556 216.845 107.556 216.743 107.556C213.803 111.889 209.797 115.396 205.109 117.741C204.458 118.121 203.721 118.331 202.966 118.352L203.885 116.926C205.54 114.212 207.006 111.387 208.273 108.472C210.926 101.139 210.11 95.9444 205.722 92.8888C204.917 92.3123 203.957 91.9927 202.966 91.9722C201.994 91.8896 201.021 92.1412 200.211 92.6851C199.398 93.0922 198.643 93.6061 197.966 94.2129C197.179 94.8865 196.461 95.6371 195.823 96.4537C194.599 97.6759 192.966 99.6111 190.925 102.157L186.945 107.25L185.109 109.389L183.782 111.019C186.139 105.92 187.853 100.548 188.884 95.0278C188.824 94.5731 188.664 94.1371 188.418 93.7501C188.171 93.3631 187.843 93.0345 187.456 92.787C186.537 91.9722 185.823 91.8703 185.211 92.787C184.592 93.2892 184.043 93.8715 183.578 94.5185C183.06 95.132 182.583 95.7785 182.149 96.4537C181.734 97.1793 181.359 97.9273 181.027 98.6944L180.619 100.324C180.338 101.162 179.997 101.979 179.598 102.768C179.598 103.787 178.986 104.602 178.782 105.009L177.864 107.148H177.149L175.312 108.676L173.272 110.306L171.333 111.731L169.19 113.463C168.555 114 167.872 114.477 167.149 114.889L165.006 116.315L162.761 117.435L160.312 118.352H158.067C154.904 118.963 152.965 118.352 152.454 115.805C152.05 113.269 152.556 110.672 153.883 108.472C154.904 109.559 155.822 110.068 156.638 110C158.52 109.447 160.361 108.767 162.149 107.963C164.19 107.046 166.537 105.824 169.088 104.398C171.161 103.334 172.894 101.711 174.088 99.7129C174.435 98.8489 174.56 97.9121 174.454 96.9874C174.347 96.0627 174.011 95.1791 173.476 94.4166C172.536 93.2295 171.343 92.2663 169.984 91.5969C168.625 90.9274 167.134 90.5685 165.618 90.5463C162.525 90.534 159.501 91.4573 156.944 93.1944C154.145 95.0457 151.778 97.4775 150.005 100.324C148.516 102.717 147.414 105.329 146.74 108.065C146.69 108.573 146.69 109.085 146.74 109.593C144.642 112.055 142.242 114.245 139.597 116.111C138.333 116.877 137.001 117.525 135.617 118.046C136.229 117.333 136.638 116.62 137.148 115.907C142.862 105.722 143.27 98.7962 138.168 94.0092C133.066 89.2222 125.311 92.3796 117.759 106.639C118.78 102.463 119.494 98.4907 120.106 94.824C120.158 94.5125 120.118 94.1927 119.992 93.9034C119.865 93.614 119.656 93.3678 119.392 93.1944C117.963 91.7685 117.045 91.5647 116.637 92.5833C111.753 105.292 107.529 118.245 103.983 131.389L100.208 143.611L95.8198 158.787C94.5952 162.963 93.5748 167.139 92.7584 171.213C92.7584 172.028 92.7584 173.046 94.187 174.167C95.6157 175.287 97.8607 176.509 98.4729 174.981C99.9016 171.043 101.228 166.969 102.453 162.759C103.677 158.481 105.106 153.491 106.636 147.583C108.167 141.676 109.29 137.398 109.902 135.361C110.514 133.324 110.718 132.611 111.331 130.472C111.943 128.333 112.249 127.009 112.351 126.296C115.658 127.429 119.249 127.429 122.555 126.296C126.074 125.236 129.339 123.468 132.148 121.102C132.886 120.993 133.606 120.788 134.291 120.491C138.878 118.773 143.026 116.06 146.434 112.546C146.328 113.426 146.328 114.315 146.434 115.194C146.817 116.549 147.477 117.809 148.373 118.896C149.269 119.983 150.381 120.873 151.638 121.509C152.882 122.234 154.281 122.653 155.72 122.731C157.072 122.942 158.449 122.942 159.802 122.731C161.348 122.25 162.824 121.565 164.19 120.694C165.72 119.676 167.149 118.861 168.169 118.046C169.19 117.231 170.516 116.213 172.047 114.889L174.802 112.444C174.19 114.278 173.374 116.315 172.455 118.759C171.537 121.204 172.455 120.796 174.394 122.222C176.333 123.648 178.272 123.648 179.7 120.694L185.109 113.361C186.922 110.605 188.935 107.984 191.129 105.518C193.059 103.629 195.104 101.86 197.252 100.222L198.783 98.8981L200.619 97.4722L202.456 96.2499V98.5926C202.551 99.5068 202.551 100.428 202.456 101.343C202.456 102.87 201.232 105.009 200.109 107.861C199.929 108.509 199.654 109.127 199.293 109.694C198.879 110.386 198.504 111.1 198.17 111.833C198.17 112.546 197.456 113.259 197.048 113.87L196.13 115.907C195.873 116.57 195.669 117.251 195.517 117.944C195.295 118.765 195.312 119.632 195.565 120.443C195.818 121.255 196.297 121.978 196.946 122.528C197.62 123.094 198.4 123.521 199.241 123.784C200.082 124.046 200.967 124.138 201.844 124.056C204.455 123.755 206.929 122.732 208.987 121.102C211.152 119.553 213.048 117.661 214.6 115.5C216.162 113.423 217.4 111.122 218.273 108.676C218.273 108.676 218.273 108.676 218.273 108.065C218.032 107.799 217.709 107.62 217.355 107.556ZM156.128 105.009C157.624 102.626 159.564 100.552 161.843 98.8981C162.933 98.1355 164.139 97.551 165.414 97.1666C166.321 96.9646 167.262 96.9646 168.169 97.1666C169.394 97.1666 169.598 97.1666 168.782 97.1666C167.965 97.1666 166.537 100.12 162.659 102.87C160.226 104.297 157.663 105.49 155.006 106.435L156.128 105.009ZM130.311 110.509C128.854 113.154 127.182 115.675 125.311 118.046C124.437 118.753 123.517 119.399 122.555 119.981C119.679 120.057 116.828 120.537 114.086 121.407C116.75 115.985 119.714 110.714 122.964 105.62L125.311 101.954C125.946 100.981 126.7 100.092 127.556 99.3055C128.618 98.2441 129.862 97.3816 131.229 96.7592C132.76 96.7592 133.78 96.0463 134.393 96.7592C135.005 97.4722 135.107 97.9814 135.005 99.5092C134.111 103.426 132.522 107.152 130.311 110.509Z" fill="#6BA4D9"/>
<path d="M331.441 53.3704C346.747 34.3241 350.523 22.1019 342.563 16.3982C340.475 15.0185 338.026 14.2828 335.522 14.2828C333.018 14.2828 330.569 15.0185 328.481 16.3982C323.227 19.1577 318.496 22.8113 314.501 27.1944C304.843 39.2856 297.036 52.7409 291.337 67.1203H277.561C282.357 55.2037 285.827 46.1389 287.765 40.1296C288.786 40.1296 288.99 39.4166 288.48 37.9907C288.377 37.7287 288.377 37.4379 288.48 37.176C287.814 35.8643 286.787 34.7691 285.52 34.0185C283.888 33 282.765 33.1018 281.847 34.0185C277.765 43.4907 273.581 54.3889 269.193 66.7129H256.846C236.437 66.7129 222.967 66.7129 216.947 66.7129C216.611 66.3991 216.199 66.1778 215.752 66.0707C215.305 65.9636 214.837 65.9743 214.395 66.1018H213.375H212.253C211.164 66.8488 211.164 67.9691 212.253 69.463C213.453 71.2006 215.282 72.4056 217.355 72.8241C221.743 72.8241 226.131 72.8241 230.621 72.8241L247.254 72.1111C253.785 72.1111 258.173 72.1111 260.418 72.1111H267.459C265.112 78.5278 262.254 87.0834 258.785 97.5741C258.417 99.0006 257.939 100.397 257.356 101.75C256.642 103.787 256.03 105.417 255.621 106.741C255.065 108.268 254.622 109.834 254.295 111.426C254.046 113.08 254.046 114.762 254.295 116.417C254.406 117.92 254.75 119.398 255.315 120.796C255.764 122.133 256.541 123.336 257.574 124.297C258.608 125.257 259.866 125.945 261.234 126.296C262.581 126.483 263.952 126.399 265.267 126.049C266.581 125.699 267.812 125.091 268.887 124.259C271.032 122.694 273.045 120.956 274.908 119.065C274.908 120.083 275.418 121.102 276.745 122.222C278.071 123.343 279.908 123.852 280.214 122.222C281.031 118.657 281.949 114.787 283.173 110.713C285.903 106.446 289.084 102.485 292.664 98.8981L293.888 97.5741C300.691 91.2593 304.365 90.3426 304.909 94.8241C304.895 95.9045 304.688 96.9738 304.297 97.9814C303.789 99.2859 303.175 100.546 302.46 101.75C301.644 103.074 301.133 103.991 300.827 104.602C299.166 108.222 298.23 112.132 298.072 116.111C298.03 118.106 298.761 120.04 300.113 121.509C300.704 122.224 301.499 122.742 302.391 122.997C303.284 123.251 304.233 123.23 305.113 122.935C308.844 121.288 311.929 118.46 313.889 114.889C313.889 114.889 313.889 115.602 313.889 115.907C314.261 117.253 314.905 118.507 315.783 119.594C316.661 120.68 317.753 121.575 318.991 122.222C320.281 122.926 321.708 123.343 323.175 123.444C324.527 123.655 325.904 123.655 327.257 123.444C328.803 122.963 330.279 122.278 331.645 121.407C333.175 120.389 334.604 119.574 335.624 118.759C336.645 117.944 337.971 116.926 339.502 115.602L342.767 112.648L345.625 109.796C345.69 109.739 345.742 109.668 345.778 109.589C345.814 109.51 345.832 109.425 345.832 109.338C345.832 109.251 345.814 109.166 345.778 109.087C345.742 109.007 345.69 108.937 345.625 108.88C345.478 108.516 345.242 108.195 344.939 107.946C344.636 107.697 344.276 107.528 343.89 107.454C343.38 107.454 343.074 107.454 342.972 107.454L341.135 108.981L339.094 110.611L337.155 112.037L335.012 113.769C334.377 114.305 333.694 114.783 332.971 115.194L330.828 116.62L328.583 117.741L326.134 118.657H323.889C320.624 119.269 318.787 118.657 318.277 116.111C317.872 113.575 318.378 110.978 319.705 108.778C320.005 109.237 320.413 109.617 320.893 109.883C321.373 110.15 321.911 110.295 322.461 110.306C324.342 109.753 326.183 109.072 327.971 108.269C330.012 107.352 332.359 106.13 334.91 104.704C336.98 103.673 338.688 102.039 339.808 100.019C340.199 99.1693 340.357 98.2319 340.268 97.3017C340.178 96.3716 339.844 95.4816 339.298 94.7222C338.358 93.5351 337.166 92.5719 335.807 91.9024C334.447 91.233 332.956 90.8741 331.441 90.8518C328.348 90.8396 325.324 91.7629 322.767 93.5C320.243 95.1383 318.06 97.248 316.338 99.713C314.848 102.106 313.746 104.718 313.073 107.454C313.056 108.476 313.124 109.498 313.277 110.509L311.95 112.037C310.925 113.313 309.799 114.505 308.583 115.602C308.583 115.602 307.97 116.315 307.154 117.028L304.501 118.759C303.582 119.37 303.072 119.574 302.868 119.37C303.044 117.801 303.421 116.26 303.991 114.787L307.868 106.639C310.039 103.065 310.971 98.8774 310.521 94.7222C310.113 93.0914 309.307 91.5868 308.174 90.3426C307.145 89.1228 305.75 88.2658 304.195 87.8981C302.512 87.5436 300.775 87.5436 299.092 87.8981C293.683 90.1106 289.161 94.0507 286.235 99.1018L287.459 95.0278C303.871 83.1082 318.656 69.1044 331.441 53.3704ZM322.359 105.009C323.849 102.654 325.75 100.584 327.971 98.8981C329.107 98.1505 330.344 97.5675 331.645 97.1667C332.552 96.9647 333.493 96.9647 334.4 97.1667C335.624 97.1667 335.828 97.1667 335.012 97.1667C334.196 97.1667 332.767 100.12 328.889 102.87C326.456 104.297 323.894 105.49 321.236 106.435L322.359 105.009ZM321.236 27.8055C327.869 20.6759 333.685 17.6204 338.584 18.1296C339.676 18.2057 340.701 18.6867 341.456 19.4782C342.211 20.2698 342.643 21.3146 342.665 22.4074C342.72 25.7147 341.912 28.9792 340.318 31.8796C338.482 35.6481 336.951 38.5 335.828 40.3333L332.053 46.8519C328.158 52.5753 323.825 57.9895 319.093 63.0463C314.641 67.8376 309.94 72.3932 305.011 76.6944C300.827 80.3611 295.419 84.8426 288.99 90.037C291.031 84.0617 293.276 78.1543 295.725 72.3148L296.643 70.2778L303.072 69.7685C303.786 69.7685 303.991 69.7685 303.684 68.9537C303.466 68.4931 303.153 68.0831 302.766 67.7499C302.38 67.4167 301.928 67.1676 301.439 67.0186H298.276C303.865 52.8477 311.609 39.6213 321.236 27.8055ZM276.336 111.732C273.977 115.655 270.392 118.697 266.132 120.389C263.071 121.407 261.132 121.102 260.316 119.676C259.914 118.761 259.706 117.772 259.706 116.773C259.706 115.774 259.914 114.786 260.316 113.87C261.846 107.963 264.805 99.4074 268.989 88.1019C270.724 83.6204 272.969 77.9166 275.724 71.0926H290.01C284.558 84.3226 279.99 97.8987 276.336 111.732Z" fill="#6BA4D9"/>
<path d="M528.284 92.2778C527.093 91.2184 525.589 90.5749 523.999 90.4445C522.772 90.5548 521.603 91.0144 520.631 91.7686C519.52 92.5799 518.495 93.5012 517.57 94.5185C516.546 95.7544 515.592 97.0466 514.712 98.3889C513.59 99.9167 512.876 100.935 512.57 101.241C510.325 103.991 508.08 107.148 505.63 110.713C507.161 106.741 508.488 103.074 509.61 99.5093L510.223 97.2685C510.165 96.6928 510.165 96.1128 510.223 95.537C510.396 94.8345 510.396 94.1007 510.223 93.3982C509.881 92.7508 509.432 92.1655 508.896 91.6667C507.161 90.1389 507.161 90.1389 506.039 91.0555C505.637 91.9482 505.296 92.867 505.018 93.8056C504.697 94.1432 504.484 94.5687 504.406 95.0278C504.377 95.4347 504.377 95.8431 504.406 96.25C504.406 96.25 504.406 97.0648 504.406 97.4723C504.479 97.8764 504.479 98.2902 504.406 98.6944C503.181 101.954 502.161 104.704 501.243 107.352C501.243 108.167 499.916 109.185 498.998 110.407L495.426 114.889C494.192 116.462 492.827 117.927 491.344 119.269C488.895 120.219 487.365 120.694 486.752 120.694C486.038 120.694 486.752 118.454 487.977 114.787C489.201 111.12 491.344 107.148 493.487 102.972C495.63 98.7963 496.753 96.4537 496.855 96.0463C496.957 95.6389 496.855 94.5186 495.936 93.5C495.269 92.6194 494.392 91.919 493.385 91.463C493.048 91.2557 492.659 91.1461 492.263 91.1461C491.866 91.1461 491.478 91.2557 491.14 91.463L487.365 98.2871C483.917 103.981 480.028 109.396 475.731 114.481C474.595 115.916 473.331 117.245 471.956 118.454C471.243 118.384 470.525 118.384 469.813 118.454C469.813 118.454 469.099 118.454 468.894 117.843C468.816 117.336 468.816 116.821 468.894 116.315C468.894 116.315 468.894 115.194 468.894 114.176C469.024 111.677 469.505 109.208 470.323 106.843C471.242 104.296 471.956 102.361 472.568 101.037C473.18 99.713 474.405 97.4723 476.038 94.3149C476.65 93.1945 476.038 91.8704 474.405 90.3426C472.772 88.8148 471.344 88.5093 470.323 89.5278C467.454 92.3706 465.318 95.8655 464.098 99.713C462.901 103.506 462.248 107.45 462.16 111.426C459.772 115.326 456.196 118.36 451.955 120.083C448.894 121.102 446.955 120.796 446.139 119.37C445.373 117.511 445.373 115.425 446.139 113.565C447.771 107.657 450.629 99.1018 454.812 87.7963C456.547 83.3148 458.792 77.6111 461.649 70.787L488.793 69.7685C489.405 69.7685 489.61 69.7685 489.405 68.9537C488.902 68.0307 488.061 67.3374 487.058 67.0186C480.426 67.0186 472.568 66.3056 463.384 66C468.18 54.0833 471.752 45.0186 473.589 39.0093C474.541 39.0093 474.745 38.2963 474.201 36.8704C474.098 36.6084 474.098 36.3176 474.201 36.0556C473.566 34.7228 472.532 33.6195 471.242 32.8981C469.711 31.8796 468.486 31.9815 467.67 32.8981C463.588 42.3704 459.302 53.2685 454.914 65.5926H442.669H419.505C427.567 54.287 430.526 45.2222 427.873 39.8241C425.219 34.4259 419.709 33.713 412.566 41.6574C406.282 48.5056 400.867 56.0997 396.443 64.2685C391.505 73.6057 387.572 83.4382 384.708 93.6018C383.279 99.5092 382.259 104.5 381.442 108.574C380.69 113.459 380.485 118.412 380.83 123.343C380.98 128.393 382.383 133.327 384.912 137.704C387.157 141.37 389.402 143.102 391.545 142.898C393.688 142.694 395.831 139.944 397.361 134.241C398.725 129.771 398.964 125.035 398.056 120.451C397.148 115.868 395.122 111.578 392.157 107.963H397.872L404.198 107.25C404.047 109.182 404.047 111.123 404.198 113.056C404.246 114.908 404.626 116.736 405.321 118.454C405.97 120.307 407.096 121.958 408.586 123.241C409.292 123.845 410.134 124.271 411.039 124.484C411.945 124.697 412.888 124.69 413.79 124.463C415.462 123.836 416.94 122.783 418.076 121.407C419.259 120.163 420.35 118.836 421.342 117.435C422.423 115.759 423.411 114.025 424.301 112.241C423.076 118.046 424.301 121.713 427.464 123.444L429.709 124.056C430.44 124.094 431.161 123.878 431.75 123.444C432.379 123.034 432.961 122.556 433.485 122.019L435.118 120.491C437.057 118.148 438.689 115.907 440.322 113.565C440.322 114.482 440.322 115.296 440.322 116.111C440.466 117.62 440.844 119.098 441.444 120.491C441.867 121.842 442.636 123.059 443.674 124.024C444.711 124.988 445.983 125.666 447.363 125.991C448.694 126.164 450.046 126.073 451.342 125.723C452.638 125.374 453.852 124.772 454.914 123.954C457.455 122.229 459.784 120.212 461.853 117.945C462.371 117.331 462.848 116.685 463.282 116.009C463.233 116.823 463.233 117.64 463.282 118.454C463.967 120.289 465.087 121.932 466.547 123.241C467.262 123.831 468.103 124.248 469.006 124.46C469.909 124.672 470.849 124.673 471.752 124.463C473.443 123.874 474.93 122.813 476.038 121.407C477.22 120.163 478.312 118.836 479.303 117.435C480.384 115.759 481.372 114.025 482.262 112.241C481.038 118.046 482.262 121.713 485.426 123.444L487.671 124.056C488.402 124.102 489.127 123.885 489.712 123.444C490.341 123.034 490.922 122.556 491.446 122.019L493.079 120.491C494.916 118.352 496.242 116.315 497.875 114.278C496.957 116.926 496.242 119.065 495.834 120.491C495.426 121.917 495.834 122.222 497.161 123.241C498.487 124.259 499.304 124.361 500.018 123.852C500.732 123.343 500.018 123.852 500.63 123.852C501.243 123.852 503.998 119.574 506.447 116.009C508.896 112.444 511.243 109.389 513.488 106.537C515.451 103.941 517.599 101.49 519.917 99.2037L520.733 98.2871C524.407 94.926 525.223 95.1297 523.284 98.8982L521.345 102.972C520.911 104.158 520.785 105.435 520.982 106.682C521.178 107.93 521.69 109.106 522.468 110.102C523.235 110.99 524.276 111.599 525.427 111.833C525.937 111.833 526.141 111.833 525.427 110.713C525.261 110.345 525.175 109.946 525.175 109.542C525.175 109.138 525.261 108.739 525.427 108.37C525.897 107.126 526.55 105.959 527.366 104.907L528.795 102.972C529.86 101.124 530.223 98.9544 529.815 96.8612C529.838 95.2047 529.299 93.5891 528.284 92.2778ZM417.158 44.3056C420.015 41.0463 421.954 39.3148 423.077 39.213H424.097C424.097 39.213 424.097 39.213 424.811 39.8241C424.881 40.1257 424.881 40.4392 424.811 40.7408C424.811 40.7408 424.811 41.3519 424.811 41.8612C424.811 42.3704 424.811 42.7778 424.811 43.1852C424.755 43.6929 424.755 44.2053 424.811 44.713C424.847 45.1196 424.847 45.5286 424.811 45.9352C424.891 46.3044 424.891 46.6864 424.811 47.0555C424.811 47.0555 424.811 47.7685 424.811 47.8704C423.001 54.2007 419.91 60.0936 415.729 65.1852H403.586C407.411 57.7967 411.957 50.8029 417.158 44.3056ZM393.075 88.713C395.162 82.8431 397.581 77.0962 400.321 71.5C401.121 72.2322 402.111 72.7261 403.178 72.9259H409.505C404.596 78.9386 399.015 84.372 392.871 89.1204L393.075 88.713ZM394.912 126.5C394.644 129.653 393.887 132.746 392.667 135.667C391.341 138.926 389.708 139.435 387.871 136.991C386.533 133.771 385.974 130.281 386.238 126.806C386.093 122.072 386.366 117.334 387.055 112.648C387.055 110.815 387.667 108.982 387.871 106.944C390.305 109.562 392.184 112.643 393.394 116.004C394.604 119.365 395.12 122.935 394.912 126.5ZM442.873 100.935C442.159 102.972 441.547 104.602 441.138 105.926L440.526 107.963C439.97 108.884 439.357 109.768 438.689 110.611L435.118 115.093C433.856 116.641 432.492 118.104 431.036 119.472C429.743 120.491 428.825 120.796 428.281 120.389C427.566 120.389 428.281 118.148 429.505 114.481C430.73 110.815 432.873 106.843 435.016 102.667C437.159 98.4908 438.281 96.1482 438.383 95.7408C438.403 94.8078 438.076 93.9005 437.465 93.1945C436.798 92.3138 435.921 91.6135 434.914 91.1574C434.576 90.9502 434.187 90.8405 433.791 90.8405C433.395 90.8405 433.006 90.9502 432.669 91.1574C431.138 93.9074 429.811 96.1481 428.893 97.9815C425.446 103.675 421.556 109.09 417.26 114.176C416.095 115.585 414.833 116.913 413.484 118.148C412.772 118.078 412.054 118.078 411.341 118.148C411.341 118.148 410.627 118.148 410.423 117.537C410.344 117.031 410.344 116.516 410.423 116.009C410.348 115.298 410.348 114.581 410.423 113.87C410.552 111.371 411.033 108.903 411.852 106.537C412.481 104.558 413.23 102.619 414.097 100.732C414.709 99.3056 415.933 97.1667 417.566 94.0093C418.178 92.8889 417.566 91.5648 415.933 90.037C414.301 88.5093 412.872 88.2038 411.852 89.2223C408.949 92.0385 406.807 95.5424 405.627 99.4075V100.833C402.673 101.164 399.742 101.674 396.851 102.361L388.79 104.194C389.547 100.336 390.535 96.5271 391.749 92.7871C400.161 87.1684 407.663 80.2989 413.995 72.4167H416.648L433.179 71.7038C439.71 71.7038 444.098 71.7038 446.445 71.7038H453.384C451.139 78.1204 448.179 86.676 444.71 97.1667C444.327 98.4707 443.814 99.7331 443.179 100.935H442.873Z" fill="#6BA4D9"/>
<path d="M562.571 107.454C562.061 107.454 561.755 107.454 561.653 107.454L559.816 108.981L558.183 110.509L556.245 111.935L554.102 113.667C553.467 114.203 552.783 114.681 552.061 115.093L549.918 116.518L547.673 117.639L545.224 118.556H542.979C539.815 119.167 537.877 118.556 537.366 116.009C536.962 113.473 537.468 110.876 538.795 108.676C539.815 109.762 540.734 110.272 541.55 110.204C543.431 109.651 545.273 108.97 547.061 108.167C549.102 107.25 551.448 106.028 554 104.602C555.722 103.537 557.158 102.069 558.183 100.324C558.53 99.46 558.656 98.5233 558.549 97.5985C558.442 96.6738 558.106 95.7903 557.571 95.0278C556.632 93.8407 555.439 92.8774 554.08 92.2079C552.721 91.5385 551.229 91.1796 549.714 91.1573C546.621 91.1451 543.597 92.0684 541.04 93.8055C538.516 95.4438 536.333 97.5535 534.611 100.018C533.122 102.411 532.02 105.024 531.346 107.759C530.583 110.318 530.583 113.043 531.346 115.602C531.717 116.947 532.362 118.202 533.24 119.288C534.117 120.374 535.209 121.269 536.448 121.917C537.738 122.62 539.165 123.037 540.632 123.139C541.984 123.349 543.361 123.349 544.714 123.139C546.26 122.657 547.736 121.972 549.101 121.102C550.632 120.083 552.061 119.268 553.081 118.454C554.102 117.639 555.428 116.62 556.959 115.296L560.224 112.343L563.082 109.491C563.147 109.433 563.199 109.363 563.235 109.284C563.27 109.205 563.289 109.119 563.289 109.032C563.289 108.946 563.27 108.86 563.235 108.781C563.199 108.702 563.147 108.631 563.082 108.574C563.015 108.162 562.838 107.775 562.571 107.454ZM540.734 105.009C542.23 102.626 544.17 100.552 546.448 98.8981C547.539 98.1355 548.745 97.551 550.02 97.1666C550.927 96.9646 551.868 96.9646 552.775 97.1666C554 97.1666 554.204 97.1666 553.387 97.1666C552.571 97.1666 551.142 100.12 547.265 102.87C544.832 104.297 542.269 105.49 539.611 106.435L540.734 105.009Z" fill="#6BA4D9"/>
</g>
<defs>
<clipPath id="clip0_109_33">
<rect width="564" height="176" fill="white"/>
</clipPath>
</defs>
</svg>
